<svg width="24" height="24" viewBox="0 0 24 24" fill="none" xmlns="http://www.w3.org/2000/svg">
<path d="M8.92227 16.3156V11.0036H7.60217V9.74875H10.2261V16.3156H8.92227ZM11.5511 16.3156V9.74875H15.9397V16.3156H11.5511ZM12.8609 15.0357H14.6359V11.0036H12.8609V15.0357ZM12.002 22.1792C10.7307 22.1792 9.53952 21.9423 8.42837 21.4685C7.3172 20.9947 6.34569 20.3419 5.51384 19.5101C4.68199 18.6784 4.02915 17.7074 3.55532 16.5972C3.08147 15.487 2.84454 14.2962 2.84454 13.025C2.84454 11.7521 3.08187 10.5603 3.55652 9.44982C4.03115 8.33932 4.68378 7.36877 5.51439 6.53815C6.34501 5.70753 7.31629 5.0549 8.42824 4.58025C9.54018 4.10561 10.7328 3.8683 12.006 3.8683H12.531L10.6228 1.96015L11.6956 0.881348L15.4842 4.66992L11.6956 8.4645L10.6228 7.39167L12.4369 5.57755H12.006C9.9346 5.57755 8.17374 6.30076 6.72337 7.74717C5.273 9.19359 4.54782 10.9515 4.54782 13.0208C4.54782 15.0901 5.27224 16.849 6.72109 18.2974C8.16994 19.7457 9.92922 20.4699 11.9989 20.4699C14.0686 20.4699 15.8283 19.7467 17.2778 18.3003C18.7274 16.8539 19.4522 15.0951 19.4522 13.0237H21.1554C21.1554 14.2976 20.9186 15.4894 20.4449 16.5989C19.9712 17.7085 19.3186 18.6786 18.487 19.5093C17.6555 20.3399 16.6845 20.9926 15.5743 21.4672C14.464 21.9419 13.2733 22.1792 12.002 22.1792Z" fill="#333B4C"/>
</svg>
