<svg width="24" height="24" viewBox="0 0 24 24" fill="none" xmlns="http://www.w3.org/2000/svg">
<path d="M12.0018 22.1792C10.7307 22.1792 9.5393 21.9419 8.42772 21.4672C7.31612 20.9926 6.34454 20.3399 5.51297 19.5093C4.68139 18.6786 4.02875 17.7085 3.55507 16.5989C3.08139 15.4894 2.84454 14.2976 2.84454 13.0237H4.54782C4.54782 15.0951 5.27224 16.8539 6.72109 18.3003C8.16994 19.7467 9.92922 20.4699 11.9989 20.4699C14.067 20.4699 15.8252 19.746 17.2736 18.2981C18.722 16.8502 19.4462 15.0921 19.4462 13.0237C19.4462 10.9524 18.7432 9.19355 17.3373 7.74715C15.9314 6.30075 14.192 5.57755 12.119 5.57755H11.569L13.3581 7.36667L12.2543 8.4645L8.46574 4.66992L12.2543 0.881348L13.3331 1.96015L11.419 3.8683H11.994C13.2672 3.8683 14.4598 4.10561 15.5717 4.58025C16.6837 5.0549 17.655 5.70753 18.4856 6.53815C19.3162 7.36877 19.9688 8.33919 20.4435 9.44942C20.9181 10.5597 21.1554 11.7504 21.1554 13.0217C21.1554 14.293 20.9186 15.4842 20.4448 16.5954C19.971 17.7065 19.3183 18.678 18.4866 19.5099C17.6549 20.3417 16.684 20.9946 15.5738 21.4684C14.4637 21.9423 13.273 22.1792 12.0018 22.1792ZM8.92227 16.3156V11.0036H7.60217V9.74875H10.2261V16.3156H8.92227ZM11.5511 16.3156V9.74875H15.9397V16.3156H11.5511ZM12.8609 15.0357H14.6359V11.0036H12.8609V15.0357Z" fill="#333B4C"/>
</svg>
