<svg width="24" height="24" viewBox="0 0 24 24" fill="none" xmlns="http://www.w3.org/2000/svg">
<path fill-rule="evenodd" clip-rule="evenodd" d="M19.5 5.5C18 3.6 16 2.5 13.6 2V4.2C15.4 4.7 16.8 5.6 17.9 7C19 8.4 19.6 10.1 19.6 11.9C19.6 13.7 19 15.4 17.9 16.8C16.8 18.3 15.3 19.2 13.6 19.7V22C16 21.5 17.9 20.4 19.5 18.5C21 16.6 21.8 14.5 21.8 12C21.8 9.5 21 7.4 19.5 5.5ZM15.4 14.3C15.8 13.6 16.1 12.8 16.1 12C16.1 11.2 15.9 10.4 15.4 9.7C15 9 14.4 8.4 13.6 8V16C14.4 15.6 15 15 15.4 14.3ZM2.20001 15V9H6.30001L11.3 4V20L6.30001 15H2.20001Z" fill="#333B4C"/>
</svg>
