<svg width="24" height="24" viewBox="0 0 24 24" fill="none" xmlns="http://www.w3.org/2000/svg">
<path fill-rule="evenodd" clip-rule="evenodd" d="M19.5 5.5C18 3.6 16 2.5 13.6 2V4.2C15.4 4.7 16.8 5.6 17.9 7.1C19 8.5 19.6 10.2 19.6 12C19.6 12.6 19.5 13.2 19.4 13.8C19.3 14.4 19.1 14.9 18.8 15.4L20.4 17C20.8 16.3 21.2 15.5 21.4 14.6C21.6 13.8 21.8 12.9 21.8 12C21.8 9.5 21.1 7.4 19.5 5.5ZM9.40002 5.8L11.3 4V7.7L9.40002 5.8ZM16.1 12V12.2C16 12.3 16 12.4 16 12.4L13.7 10.1V8C14.4 8.4 15 9 15.4 9.7C15.9 10.4 16.1 11.2 16.1 12ZM5.70002 9.0001L0.900024 4.1001L2.40002 2.6001L21.4 21.6001L19.9 23.1001L17.3 20.5001C16.8 20.9001 16.2 21.2001 15.6 21.4001C15 21.7001 14.4 21.9001 13.7 22.0001V19.7001C13.9175 19.7001 14.1876 19.5949 14.4341 19.499C14.5275 19.4626 14.6175 19.4276 14.7 19.4001C14.8417 19.3292 14.9709 19.2709 15.0919 19.2163C15.3126 19.1167 15.5063 19.0292 15.7 18.9001L11.3 14.5001V20.0001L6.30002 15.0001H2.20002V9.0001H5.70002Z" fill="#333B4C"/>
</svg>
