<?xml version="1.0" encoding="UTF-8"?>
<svg width="34px" height="34px" viewBox="0 0 34 34" version="1.1" xmlns="http://www.w3.org/2000/svg" xmlns:xlink="http://www.w3.org/1999/xlink">
    <!-- Generator: sketchtool 55.1 (78136) - https://sketchapp.com -->
    <title>FAB45380-2D6C-4F74-A415-E842A0488451</title>
    <desc>Created with sketchtool.</desc>
    <g id="Version-0-2" stroke="none" stroke-width="1" fill="none" fill-rule="evenodd">
        <g id="VC-1-5-Error" transform="translate(-541.000000, -324.000000)" fill="#FFFFFF">
            <g id="Group-3" transform="translate(0.000000, -1.000000)">
                <g id="Video-Player/Dark" transform="translate(470.000000, 85.000000)">
                    <g id="icon/info/outline" transform="translate(70.000000, 239.044444)">
                        <path d="M16.3125,26.4375 L19.6875,26.4375 L19.6875,16.3125 L16.3125,16.3125 L16.3125,26.4375 Z M18,1.125 C8.685,1.125 1.125,8.685 1.125,18 C1.125,27.315 8.685,34.875 18,34.875 C27.315,34.875 34.875,27.315 34.875,18 C34.875,8.685 27.315,1.125 18,1.125 Z M18,31.5 C10.558125,31.5 4.5,25.441875 4.5,18 C4.5,10.558125 10.558125,4.5 18,4.5 C25.441875,4.5 31.5,10.558125 31.5,18 C31.5,25.441875 25.441875,31.5 18,31.5 Z M16.3125,12.9375 L19.6875,12.9375 L19.6875,9.5625 L16.3125,9.5625 L16.3125,12.9375 Z" id="ic_info_outline_24px"></path>
                    </g>
                </g>
            </g>
        </g>
    </g>
</svg>
